<?xml version="1.0" encoding="utf-8"?>
<!-- Generator: Adobe Illustrator 24.0.1, SVG Export Plug-In . SVG Version: 6.00 Build 0)  -->
<svg version="1.1" id="Capa_2_1_" xmlns="http://www.w3.org/2000/svg" xmlns:xlink="http://www.w3.org/1999/xlink" x="0px" y="0px"
	 viewBox="0 0 260 260" style="enable-background:new 0 0 260 260;" xml:space="preserve">
<path d="M221.6,101.4c-2.9-3.1-7-4.1-11-5.1c-8.6-2.2-17.2-4.5-25.8-6.7c-5.3-1.4-12,3.9-9.7,9.7c5.5,13.8,3.9,30.5-6.3,42
	c-2.1,2.4-4.6,4.6-7.2,6.4c-1.5-8-4.6-15.5-9.8-21.4c-7.7-8.8-20.7-8.6-28.8-0.4c-7.5,7.6-9.1,20.2-7.9,30.4
	c1.5,12.9,14.8,15,25.6,14.4c2-0.1,3.9-0.3,5.9-0.6c-0.4,3.1-1,6.1-1.8,9c-3.5,13.1-10.5,24.7-20.9,33.9c-4,3.6-10.8,7.9-15.6,9.8
	c-3.5,1.4-7.5,2.9-11.3,3c-1.4,0-2.7,0-4-0.4c0,0-1.4-0.5-1.5-0.5c-0.8-0.4-1.5-0.8-2.3-1.3c-1.3-0.9-3.3-3.2-4.5-5.1
	c-1.8-3.1-2.3-4.5-3.4-8.1c-2-7.3-2.1-14.2-1.6-22.5c1.1-19.1,6.1-37.8,12.3-55.8c2.1-6.1,4.3-12.1,6.6-18.2
	c5.6-1.7,11.1-3.8,16.4-6.5c19.6-9.9,35.2-28.6,39.2-50.4c2.3-12.3,0.9-24.6-4.8-35.8c-1.8-3.6-7.4-5.2-10.8-2.8
	c-16.6,11.6-27.8,28.4-36.4,46.5c-5.6,11.7-10.7,23.8-15.4,35.9c-2.5,0.6-5.1,1.1-7.6,1.5c-11.9,1.9-24.1,1.9-36.1,1.3
	c-4.3-0.2-7.9,3.8-7.9,7.9c0,4.5,3.6,7.7,7.9,7.9c12.3,0.6,24.9,0.4,37.2-1.4c-0.9,2.5-1.9,5.1-2.8,7.6
	c-7.7,21.8-13.4,44.6-13.9,67.8c-0.3,16.2,3.7,37.8,20.2,45.4c17.9,8.3,39.7-3.8,52.7-16.1c12.4-11.7,21.3-27.8,24.5-44.5
	c0.8-4.1,1.4-8.5,1.6-13.1c2.2-1.1,4.3-2.2,6.3-3.6c17-11.2,26.8-31.6,24.6-51.9c-0.1-0.5-0.1-1.1-0.2-1.6c2.9,0.7,5.7,1.5,8.6,2.2
	c1.9,0.5,3.7,1,5.5,1.4c0.3,0.1,0.7,0.2,1,0.3c0,0.1-0.1,0.3-0.1,0.3c-0.5,1.9-1,3.8-1.5,5.7c-4,15.1-7.9,30.1-11.9,45.2
	c-2.6,9.8,12.6,14,15.2,4.2c4.6-17.5,9.8-35,13.8-52.7C225.5,110,225.2,105.2,221.6,101.4z M115,75.3c6.1-13.2,13.5-26.5,24.1-36.7
	c0.9,4.6,1,9.3,0.3,13.5c-1.5,9-4.9,16.4-10.2,23.8c-5.7,7.9-13.6,13.8-22.4,18.2C109.4,87.8,112.1,81.5,115,75.3z M130.8,154.3
	c0-2.1,0-4.2,0.1-6.2c0.2-3.4,0.7-7.8,2.7-10.3c1-1.2,2-2.4,4.5-2.4s4.2,4.5,5,6.2c1.8,3.9,2.9,8.1,3.5,12.5c-2,0.4-3.9,0.7-5.9,0.8
	C137.1,155.2,134,154.6,130.8,154.3z M210.4,112.5C211.5,112.8,210.6,112.7,210.4,112.5L210.4,112.5z"/>

</svg>
